<?xml version="1.0" encoding="iso-8859-1"?>
<!-- Uploaded to: SVG Repo, www.svgrepo.com, Generator: SVG Repo Mixer Tools -->
<svg fill="#000000" height="800px" width="800px" version="1.1" id="Layer_1" xmlns="http://www.w3.org/2000/svg" xmlns:xlink="http://www.w3.org/1999/xlink" 
	 viewBox="0 0 512 512" xml:space="preserve">
<g>
	<g>
		<path d="M316.235,222.118H195.765c-29.062,0-52.706,23.644-52.706,52.706v120.471c0,29.062,23.644,52.706,52.706,52.706h120.471
			c29.062,0,52.706-23.644,52.706-52.706V274.824C368.941,245.762,345.297,222.118,316.235,222.118z M323.765,312.471h-47.91
			c-5.307-4.671-12.246-7.529-19.855-7.529c-16.607,0-30.118,13.511-30.118,30.118s13.511,30.118,30.118,30.118
			c7.609,0,14.547-2.858,19.855-7.529h47.91v37.647c0,4.152-3.378,7.529-7.529,7.529H195.765c-4.152,0-7.529-3.378-7.529-7.529
			V274.824c0-4.152,3.378-7.529,7.529-7.529h120.471c4.152,0,7.529,3.378,7.529,7.529V312.471z"/>
	</g>
</g>
<g>
	<g>
		<path d="M256,64C139.565,64,45.176,97.711,45.176,139.294c0,25.096,34.385,47.319,87.237,61
			c17.087-14.547,39.204-23.353,63.351-23.353h120.471c24.147,0,46.264,8.806,63.351,23.353c52.852-13.681,87.237-35.905,87.237-61
			C466.824,97.711,372.435,64,256,64z"/>
	</g>
</g>
<g>
	<g>
		<path d="M0,139.294v165.647c0,36.048,38.28,68.15,97.882,88.829V274.824c0-15.562,3.668-30.276,10.157-43.354
			C42.665,211.007,0,177.349,0,139.294z"/>
	</g>
</g>
<g>
	<g>
		<path d="M403.961,231.469c6.489,13.077,10.157,27.793,10.157,43.354V393.77C473.721,373.091,512,340.989,512,304.941V139.294
			C512,177.349,469.335,211.007,403.961,231.469z"/>
	</g>
</g>
</svg>