<?xml version="1.0" encoding="iso-8859-1"?>
<!-- Uploaded to: SVG Repo, www.svgrepo.com, Generator: SVG Repo Mixer Tools -->
<svg fill="#000000" version="1.1" id="Layer_1" xmlns="http://www.w3.org/2000/svg" xmlns:xlink="http://www.w3.org/1999/xlink" 
	 viewBox="0 0 512 512" xml:space="preserve">
<g>
	<g>
		<rect x="239.304" y="267.13" width="33.391" height="33.391"/>
	</g>
</g>
<g>
	<g>
		<path d="M72.348,166.957v16.696c0,46.032,37.446,83.478,83.478,83.478h50.087v-16.696c0-9.223,7.473-16.696,16.696-16.696h66.783
			c9.223,0,16.696,7.473,16.696,16.696v16.696h50.087c46.032,0,83.478-37.446,83.478-83.478v-16.696H72.348z"/>
	</g>
</g>
<g>
	<g>
		<rect x="172.522" width="166.957" height="133.565"/>
	</g>
</g>
<g>
	<g>
		<path d="M55.652,0C28.033,0,5.565,22.468,5.565,50.087v33.391c0,27.619,22.468,50.087,50.087,50.087c37.147,0,46.347,0,83.478,0V0
			H55.652z"/>
	</g>
</g>
<g>
	<g>
		<path d="M456.348,0H372.87v133.565c37.11,0,46.346,0,83.478,0c27.619,0,50.087-22.468,50.087-50.087V50.087
			C506.435,22.468,483.967,0,456.348,0z"/>
	</g>
</g>
<g>
	<g>
		<path d="M5.565,328.348v100.174c0,21.737,14,40.096,33.391,47.01c0-68.088,0-126.645,0-194.194
			C19.565,288.252,5.565,306.611,5.565,328.348z"/>
	</g>
</g>
<g>
	<g>
		<path d="M356.174,300.522h-50.087v16.696c0,9.223-7.473,16.696-16.696,16.696h-66.783c-9.223,0-16.696-7.473-16.696-16.696
			v-16.696h-50.087c-32.689,0-62.247-13.529-83.478-35.236c0,87.059,0,28.078,0,113.149h367.304c0-72.339,0-40.662,0-113.149
			C418.421,286.993,388.863,300.522,356.174,300.522z"/>
	</g>
</g>
<g>
	<g>
		<path d="M473.043,281.337c0,67.915,0,127.202,0,194.194c19.391-6.914,33.391-25.273,33.391-47.01V328.348
			C506.435,306.611,492.435,288.252,473.043,281.337z"/>
	</g>
</g>
<g>
	<g>
		<path d="M339.478,411.826v16.696c0,9.22-7.475,16.696-16.696,16.696s-16.696-7.475-16.696-16.696v-16.696H72.348v50.087
			c0,27.662,22.423,50.087,50.087,50.087h267.13c27.664,0,50.087-22.424,50.087-50.087v-50.087H339.478z"/>
	</g>
</g>
</svg>