<?xml version="1.0" encoding="UTF-8" standalone="no"?>
<!-- Uploaded to: SVG Repo, www.svgrepo.com, Generator: SVG Repo Mixer Tools -->

<svg
   fill="#000000"
   version="1.1"
   id="Capa_1"
   width="800px"
   height="800px"
   viewBox="0 0 471.787 471.787"
   xml:space="preserve"
   sodipodi:docname="gear-leftshouldergear.svg"
   inkscape:version="1.3.2 (091e20e, 2023-11-25, custom)"
   xmlns:inkscape="http://www.inkscape.org/namespaces/inkscape"
   xmlns:sodipodi="http://sodipodi.sourceforge.net/DTD/sodipodi-0.dtd"
   xmlns="http://www.w3.org/2000/svg"
   xmlns:svg="http://www.w3.org/2000/svg"><defs
   id="defs1" /><sodipodi:namedview
   id="namedview1"
   pagecolor="#505050"
   bordercolor="#eeeeee"
   borderopacity="1"
   inkscape:showpageshadow="0"
   inkscape:pageopacity="0"
   inkscape:pagecheckerboard="0"
   inkscape:deskcolor="#505050"
   inkscape:zoom="1.47625"
   inkscape:cx="399.6613"
   inkscape:cy="400"
   inkscape:window-width="2560"
   inkscape:window-height="1377"
   inkscape:window-x="448"
   inkscape:window-y="1432"
   inkscape:window-maximized="1"
   inkscape:current-layer="Capa_1" />
<g
   id="g1"
   transform="matrix(-1,0,0,1,471.7882,0)">
	<g
   id="_x35_1_20_">
		<path
   d="M 360.852,35.142 C 345.375,17.086 258.516,-26.484 211.227,22.527 c -47.29,49.01 2.952,83.636 21.012,91.97 18.057,8.334 69.647,21.066 88.354,-11.607 4.99,12.785 1.623,119.131 -27.865,146.17 -14.942,-14.246 -36.51,-23.19 -60.488,-23.19 -19.689,0 -37.746,6.031 -51.85,16.073 -18.619,-29.884 -53.845,-50.062 -94.271,-50.062 -19.383,0 -37.563,4.659 -53.308,12.782 v 10.448 c -0.013,-0.003 -0.056,-0.013 -0.056,-0.013 V 471.76 c 0,0 74.807,3.87 80.791,-82.544 -0.002,-0.005 -0.005,-0.01 -0.005,-0.015 18.198,26.427 76.18,46.541 111.909,45.355 56.121,-1.861 130.693,-4.321 193.865,-64.881 5.838,-5.809 10.52,-12.669 13.701,-20.259 0,-0.002 0,-0.002 0,-0.004 29.226,-60.797 -56.688,-296.214 -72.164,-314.27 z"
   id="path1" />
	</g>
</g>
</svg>
